Coordinates
version=1
nRows=21
nColumns=28
inDegrees=yes

Units are S.I. units (second, meters, Newtons, ...)
Angles are in degrees.

endheader
time	pelvis_tilt	pelvis_list	pelvis_rotation	pelvis_tx	pelvis_ty	pelvis_tz	hip_flexion_r	hip_adduction_r	hip_rotation_r	knee_angle_r	ankle_angle_r	subtalar_angle_r	mtp_angle_r	hip_flexion_l	hip_adduction_l	hip_rotation_l	knee_angle_l	socket_flexion	socket_adduction	socket_rotation	socket_tx	socket_ty	socket_tz	foot_flex	lumbar_extension	lumbar_bending	lumbar_rotation
      0.64583333	      1.51913457	     -4.81711960	      2.91904101	      0.05361937	      0.98556502	      0.26042871	     25.72046484	      4.40269499	    -14.35702051	    -11.50967166	      3.45276138	     -9.68218508	     20.35526518	    -23.00627899	     -5.97599204	     14.60413826	     -7.47270530	      0.00000000	      0.00000000	      0.00000000	      0.00000000	     -0.01163572	      0.00000000	      7.80143465	    -14.63820783	      5.36897971	      1.81374633
      0.65000000	      1.48844982	     -4.70552816	      2.84142210	      0.05362623	      0.98553459	      0.26060205	     25.83875234	      4.29251882	    -14.43261926	    -11.69594049	      3.42213005	     -9.66142242	     20.23683353	    -22.98038224	     -5.83067438	     14.52775043	     -7.47853232	      0.00000000	      0.00000000	      0.00000000	      0.00000000	     -0.01141312	      0.00000000	      7.87227848	    -14.60728258	      5.21084166	      1.79470929
      0.65416667	      1.50971736	     -4.78824737	      2.91772882	      0.05962415	      0.98482905	      0.26074707	     25.90416433	      4.37374965	    -14.22312520	    -12.30957324	      3.03856105	     -9.68690765	     20.25716959	    -23.16617195	     -5.91602964	     14.55978636	     -7.82282990	      0.00000000	      0.00000000	      0.00000000	      0.00000000	     -0.01135861	      0.00000000	      7.71217466	    -14.60901797	      5.44757216	      1.81528963
      0.65833333	      1.55108911	     -4.95699828	      2.55085840	      0.06567361	      0.98406907	      0.26167527	     25.94541016	      4.80104325	    -13.44133894	    -12.76857184	      1.18217070	    -11.96957690	     22.25014290	    -23.51690906	     -5.93534307	     14.05143580	     -8.05617896	      0.00000000	      0.00000000	      0.00000000	      0.00000000	     -0.01120541	      0.00000000	      7.56983175	    -14.65702914	      5.64578616	      2.25316838
      0.66250000	      1.58647435	     -5.01951375	      2.50592323	      0.07178254	      0.98347474	      0.26206686	     26.07486008	      4.87012250	    -13.39692410	    -13.55436822	      0.51708818	    -11.94006083	     22.26838023	    -23.72572452	     -5.95054345	     13.94116795	     -8.43374433	      0.00000000	      0.00000000	      0.00000000	      0.00000000	     -0.01096070	      0.00000000	      7.43217021	    -14.66190782	      5.80428767	      2.22675355
      0.66666667	      1.62586706	     -5.11359522	      2.42595104	      0.07787721	      0.98289471	      0.26246484	     26.21136296	      4.97988718	    -13.30287981	    -14.37104955	     -0.07080569	    -11.99178002	     22.30990893	    -23.93744991	     -5.97903076	     13.81798399	     -8.81847858	      0.00000000	      0.00000000	      0.00000000	      0.00000000	     -0.01077225	      0.00000000	      7.27112959	    -14.67903216	      6.00836038	      2.25546186
      0.67083333	      1.66225636	     -5.22126689	      2.29400040	      0.08402363	      0.98238512	      0.26293825	     26.33857265	      5.12536733	    -13.17241514	    -15.16442389	     -0.72603003	    -12.13237160	     22.41757296	    -24.12979775	     -5.99363479	     13.59108245	     -9.24886660	      0.00000000	      0.00000000	      0.00000000	      0.00000000	     -0.01053891	      0.00000000	      7.07195574	    -14.69525115	      6.21198681	      2.36097521
      0.67500000	      1.63177095	     -5.36612738	      1.93730291	      0.09009357	      0.98179053	      0.26386629	     26.44267282	      5.50340277	    -12.40457096	    -15.71088585	     -1.95808336	    -13.53203872	     23.68248171	    -24.28708401	     -5.96507217	     13.13910566	     -9.68079547	      0.00000000	      0.00000000	      0.00000000	      0.00000000	     -0.01036162	      0.00000000	      6.86409839	    -14.66606655	      6.36559641	      2.94357568
      0.67916667	      1.68992482	     -5.48652270	      1.84052990	      0.09624595	      0.98144903	      0.26427424	     26.54358523	      5.62908538	    -12.34590408	    -16.53884490	     -2.43698307	    -13.55781594	     23.69680837	    -24.45796825	     -5.99945542	     12.98366920	    -10.17176860	      0.00000000	      0.00000000	      0.00000000	      0.00000000	     -0.01011908	      0.00000000	      6.61506402	    -14.68809702	      6.61049886	      2.92608449
      0.68333333	      1.74092304	     -5.60647576	      1.84398214	      0.10235794	      0.98124680	      0.26454289	     26.55119945	      5.75289845	    -12.17196293	    -17.18309526	     -2.71407932	    -13.54366252	     23.70649131	    -24.52604792	     -6.06274071	     12.92707532	    -10.79930609	      0.00000000	      0.00000000	      0.00000000	      0.00000000	     -0.00985304	      0.00000000	      6.35166763	    -14.70928055	      6.85426474	      2.95840094
      0.68750000	      1.80403067	     -5.75215661	      1.70637360	      0.10849963	      0.98104472	      0.26502757	     26.62844402	      5.92373299	    -12.08336578	    -17.99421753	     -3.13572657	    -13.56334568	     23.70720222	    -24.64899918	     -6.09805001	     12.73046762	    -11.39444605	      0.00000000	      0.00000000	      0.00000000	      0.00000000	     -0.00960606	      0.00000000	      6.05763613	    -14.75677540	      7.10869315	      3.00208978
      0.69166667	      1.86320362	     -5.95461665	      1.28436282	      0.11500509	      0.98072959	      0.26588854	     26.75024469	      6.24118084	    -11.94891906	    -18.91309683	     -3.88387309	    -13.75186024	     23.83633098	    -24.89868864	     -6.07711443	     12.09132631	    -11.87637836	      0.00000000	      0.00000000	      0.00000000	      0.00000000	     -0.00928569	      0.00000000	      5.74956701	    -14.77664895	      7.34430961	      3.31874105
      0.69583333	      1.92788293	     -6.07459546	      1.28371293	      0.12126482	      0.98079808	      0.26615183	     26.67510700	      6.37091696	    -11.74378100	    -19.48633826	     -4.06615984	    -13.76119406	     23.86812793	    -24.91419903	     -6.12592617	     12.01486760	    -12.61059574	      0.00000000	      0.00000000	      0.00000000	      0.00000000	     -0.00883215	      0.00000000	      5.43513504	    -14.77230601	      7.59772920	      3.39447188
      0.70000000	      2.02170546	     -6.26883371	      0.89500202	      0.12767309	      0.98066702	      0.26696036	     26.74383313	      6.66764531	    -11.60946722	    -20.40581982	     -4.57243688	    -13.93335191	     23.97561776	    -25.11330656	     -6.10046251	     11.44491020	    -13.21474991	      0.00000000	      0.00000000	      0.00000000	      0.00000000	     -0.00848865	      0.00000000	      5.06993346	    -14.84627104	      7.84845160	      3.64001381
      0.70416667	      2.14260277	     -6.49266453	      0.38115170	      0.13398476	      0.98079143	      0.26808840	     26.57458579	      7.19283059	    -10.80099790	    -20.89791775	     -5.13388909	    -14.66523350	     24.57685649	    -25.32190290	     -6.05754041	     10.72210175	    -13.87888659	      0.00000000	      0.00000000	      0.00000000	      0.00000000	     -0.00796855	      0.00000000	      4.71051569	    -14.97630058	      8.01894909	      4.58314407
      0.70833333	      2.22048592	     -6.61341276	      0.34650432	      0.14032055	      0.98103526	      0.26838720	     26.47367231	      7.31674108	    -10.69428095	    -21.48426799	     -5.27746558	    -14.68058155	     24.60190877	    -25.27857565	     -6.08869812	     10.59971341	    -14.73823474	      0.00000000	      0.00000000	      0.00000000	      0.00000000	     -0.00740769	      0.00000000	      4.34644435	    -14.99579661	      8.25395164	      4.58949267
      0.71250000	      2.31086402	     -6.73434015	      0.26829810	      0.14671643	      0.98131825	      0.26873794	     26.35879910	      7.45133991	    -10.60634428	    -22.10240454	     -5.41943941	    -14.68699437	     24.62935386	    -25.24552343	     -6.10209824	     10.38839026	    -15.61200822	      0.00000000	      0.00000000	      0.00000000	      0.00000000	     -0.00685234	      0.00000000	      3.97202890	    -15.00651284	      8.48426453	      4.60764160
      0.71666667	      2.51464538	     -6.90844483	     -0.33260749	      0.15317386	      0.98154697	      0.26989788	     26.20575308	      7.86047581	    -10.14489531	    -22.90164799	     -5.66936307	    -14.84233903	     25.13557133	    -25.50793540	     -5.96102217	      9.49714747	    -16.35135295	      0.00000000	      0.00000000	      0.00000000	      0.00000000	     -0.00621394	      0.00000000	      3.60468995	    -15.23008942	      8.61859544	      5.20548228
      0.72083333	      2.60345203	     -7.01372468	     -0.36858436	      0.15963777	      0.98200460	      0.27017111	     26.01822254	      7.97250056	    -10.06353927	    -23.40013189	     -5.73944686	    -14.83946839	     25.16753356	    -25.39834398	     -5.97474853	      9.34464486	    -17.31408025	      0.00000000	      0.00000000	      0.00000000	      0.00000000	     -0.00548493	      0.00000000	      3.22000605	    -15.22078607	      8.82983878	      5.22771355
      0.72500000	      2.81299292	     -7.10864443	     -0.75217247	      0.16604455	      0.98244551	      0.27102334	     25.79761949	      8.20538963	     -9.79309590	    -24.11455498	     -5.74179188	    -14.79519007	     25.55173533	    -25.50473156	     -5.84056133	      8.69287796	    -18.22373874	      0.00000000	      0.00000000	      0.00000000	      0.00000000	     -0.00469784	      0.00000000	      2.86894924	    -15.41593396	      8.92239824	      5.50479842
      0.72916667	      2.91066466	     -7.20413045	     -0.81115636	      0.17255110	      0.98300226	      0.27128600	     25.56515656	      8.31294353	     -9.72711775	    -24.57376747	     -5.77211536	    -14.78009505	     25.59650718	    -25.35767732	     -5.83421489	      8.49675769	    -19.25755101	      0.00000000	      0.00000000	      0.00000000	      0.00000000	     -0.00392303	      0.00000000	      2.50074601	    -15.41316033	      9.11900193	      5.54275540
